<?xml version='1.0' encoding='iso-8859-1'?>
<svg version="1.1" xmlns="http://www.w3.org/2000/svg" viewBox="0 0 462.984 462.984" xmlns:xlink="http://www.w3.org/1999/xlink" enable-background="new 0 0 462.984 462.984">
  <g>
    <path d="m231.491,343c17.369,0 31.5-14.131 31.5-31.5 0-8.036-3.029-15.375-8-20.946v-19.054c0-4.142-3.358-7.5-7.5-7.5s-7.5,3.358-7.5,7.5v9.675c-2.706-0.76-5.555-1.175-8.5-1.175s-5.794,0.415-8.5,1.175v-9.675c0-4.142-3.358-7.5-7.5-7.5s-7.5,3.358-7.5,7.5v19.054c-4.971,5.571-8,12.91-8,20.946 2.84217e-14,17.369 14.131,31.5 31.5,31.5zm16.5-31.5c0,9.098-7.402,16.5-16.5,16.5s-16.5-7.402-16.5-16.5 7.402-16.5 16.5-16.5 16.5,7.402 16.5,16.5z"/>
    <path d="m315.858,322.72c-4.326-8.132-6.118-17.894-5.182-28.231 0.83-9.173 0.015-18.44-2.421-27.543-6.993-26.125-27.569-47.296-53.263-55.372v-134.519c4.765-2.647 8-7.728 8-13.555v-40c0-12.958-10.542-23.5-23.5-23.5h-16c-12.958,0-23.5,10.542-23.5,23.5v40c0,5.827 3.235,10.908 8,13.555v134.492c-14.968,4.642-28.426,13.724-38.357,26.009-11.377,14.075-17.643,31.812-17.643,49.943 0,2.297 0.104,4.621 0.309,6.906 0.921,10.299-0.966,20.275-5.458,28.849-9.113,17.399-12.584,37.065-10.038,56.872 5.507,42.82 40.677,77.411 83.626,82.249 3.616,0.408 7.23,0.608 10.829,0.608 23.49,0 46.29-8.565 63.846-24.254 20.264-18.109 31.885-44.071 31.885-71.229 5.68434e-14-15.602-3.85-31.087-11.133-44.78zm-100.867-299.22c0-4.687 3.813-8.5 8.5-8.5h16c4.687,0 8.5,3.813 8.5,8.5v40c0,0.276-0.224,0.5-0.5,0.5h-32c-0.276,0-0.5-0.224-0.5-0.5v-40zm70.119,404.045c-17.316,15.474-39.69,22.55-63,19.925-36.172-4.075-65.791-33.202-70.428-69.257-2.153-16.74 0.769-33.337 8.448-47.999 5.83-11.128 8.288-23.972 7.11-37.146-0.165-1.843-0.249-3.717-0.249-5.569 0-14.924 4.948-28.934 14.309-40.514 7.068-8.745 16.336-15.482 26.691-19.55v12.06c0,4.142 3.358,7.5 7.5,7.5s7.5-3.358 7.5-7.5v-160.495h17v160.496c0,4.142 3.358,7.5 7.5,7.5s7.5-3.358 7.5-7.5v-12.015c18.756,7.476 33.51,23.679 38.773,43.343 1.979,7.394 2.643,14.901 1.972,22.313-1.2,13.249 1.179,25.914 6.877,36.627 6.134,11.533 9.377,24.582 9.377,37.736 0.001,22.893-9.797,44.778-26.88,60.045z"/>
    <path d="m263.491,384h-64c-4.142,0-7.5,3.358-7.5,7.5s3.358,7.5 7.5,7.5h64c4.142,0 7.5-3.358 7.5-7.5s-3.358-7.5-7.5-7.5z"/>
  </g>
</svg>
